<svg xmlns="http://www.w3.org/2000/svg" style="display:none">
  <!-- Theme icons -->
  <symbol id="icon-sun" viewBox="0 0 24 24" fill="none" stroke="currentColor" stroke-width="2" stroke-linecap="round" stroke-linejoin="round">
    <circle cx="12" cy="12" r="4"/>
    <path d="M12 2v2"/>
    <path d="M12 20v2"/>
    <path d="m4.93 4.93 1.41 1.41"/>
    <path d="m17.66 17.66 1.41 1.41"/>
    <path d="M2 12h2"/>
    <path d="M20 12h2"/>
    <path d="m6.34 17.66-1.41 1.41"/>
    <path d="m19.07 4.93-1.41 1.41"/>
  </symbol>
  <symbol id="icon-moon" viewBox="0 0 24 24" fill="none" stroke="currentColor" stroke-width="2" stroke-linecap="round" stroke-linejoin="round">
    <path d="M12 3a6 6 0 0 0 9 9 9 9 0 1 1-9-9Z"/>
  </symbol>

  <!-- Meta icons -->
  <symbol id="icon-calendar" viewBox="0 0 24 24" fill="none" stroke="currentColor" stroke-width="2" stroke-linecap="round" stroke-linejoin="round">
    <path d="M8 2v4"/><path d="M16 2v4"/><rect width="18" height="18" x="3" y="4" rx="2"/><path d="M3 10h18"/>
  </symbol>
  <symbol id="icon-clock" viewBox="0 0 24 24" fill="none" stroke="currentColor" stroke-width="3" stroke-linecap="round">
    <path d="M12 7V12H15"/>
    <path d="M21 12C21 16.9706 16.9706 21 12 21C7.02944 21 3 16.9706 3 12C3 7.02944 7.02944 3 12 3C16.9706 3 21 7.02944 21 12Z"/>
  </symbol>
  <symbol id="icon-edit" viewBox="0 0 24 24" fill="currentColor">
    <path fill-rule="evenodd" d="M20.8477 1.87868C19.6761 0.707109 17.7766 0.707105 16.605 1.87868L2.44744 16.0363C2.02864 16.4551 1.74317 16.9885 1.62702 17.5692L1.03995 20.5046C0.760062 21.904 1.9939 23.1379 3.39334 22.858L6.32868 22.2709C6.90945 22.1548 7.44285 21.8693 7.86165 21.4505L22.0192 7.29289C23.1908 6.12132 23.1908 4.22183 22.0192 3.05025L20.8477 1.87868ZM18.0192 3.29289C18.4098 2.90237 19.0429 2.90237 19.4335 3.29289L20.605 4.46447C20.9956 4.85499 20.9956 5.48815 20.605 5.87868L17.9334 8.55027L15.3477 5.96448L18.0192 3.29289ZM13.9334 7.3787L3.86165 17.4505C3.72205 17.5901 3.6269 17.7679 3.58818 17.9615L3.00111 20.8968L5.93645 20.3097C6.13004 20.271 6.30784 20.1759 6.44744 20.0363L16.5192 9.96448L13.9334 7.3787Z"/>
  </symbol>

  <!-- Footer/social -->
  <symbol id="icon-github" viewBox="0 0 24 24" fill="none" stroke="currentColor" stroke-width="2" stroke-linecap="round" stroke-linejoin="round">
    <path d="M15 22v-4a4.8 4.8 0 0 0-1-3.5c3 0 6-2 6-5.5.08-1.25-.27-2.48-1-3.5.28-1.15.28-2.35 0-3.5 0 0-1 0-3 1.5-2.64-.5-5.36-.5-8 0C6 2 5 2 5 2c-.3 1.15-.3 2.35 0 3.5A5.403 5.403 0 0 0 4 9c0 3.5 3 5.5 6 5.5-.39.49-.68 1.05-.85 1.65-.17.6-.22 1.23-.15 1.85v4"/>
    <path d="M9 18c-4.51 2-5-2-7-2"/>
  </symbol>
  <symbol id="icon-linkedin" viewBox="0 0 24 24" fill="none" stroke="currentColor" stroke-width="2" stroke-linecap="round" stroke-linejoin="round">
    <path d="M16 8a6 6 0 0 1 6 6v7h-4v-7a2 2 0 0 0-2-2 2 2 0 0 0-2 2v7h-4v-7a6 6 0 0 1 6-6z"/>
    <rect width="4" height="12" x="2" y="9"/>
    <circle cx="4" cy="4" r="2"/>
  </symbol>
  <symbol id="icon-mail" viewBox="0 0 24 24" fill="none" stroke="currentColor" stroke-width="2" stroke-linecap="round" stroke-linejoin="round">
    <rect width="20" height="16" x="2" y="4" rx="2"/>
    <path d="m22 7-8.97 5.7a1.94 1.94 0 0 1-2.06 0L2 7"/>
  </symbol>
  <symbol id="icon-rss" viewBox="0 0 24 24" fill="none" stroke="currentColor" stroke-width="2" stroke-linecap="round" stroke-linejoin="round">
    <path d="M4 11a9 9 0 0 1 9 9"/>
    <path d="M4 4a16 16 0 0 1 16 16"/>
    <circle cx="5" cy="19" r="1"/>
  </symbol>

  <!-- Misc -->
  <symbol id="icon-tag" viewBox="0 0 24 24" fill="none" stroke="currentColor" stroke-width="2" stroke-linecap="round" stroke-linejoin="round">
    <path d="M20.59 13.41l-7.17 7.17a2 2 0 0 1-2.83 0L2 12V2h10l8.59 8.59a2 2 0 0 1 0 2.82z"/>
    <line x1="7" y1="7" x2="7.01" y2="7"/>
  </symbol>
  <symbol id="icon-arrow-up-circle" viewBox="0 0 24 24" fill="none" stroke="currentColor" stroke-width="1.5" stroke-linecap="round" stroke-linejoin="miter">
    <circle cx="12" cy="12" r="10"/>
    <polyline points="16 13.2 12 9.5 8 13.2"/>
  </symbol>

  <!-- Books filter icons (as-is from templates) -->
  <symbol id="icon-chevrons" viewBox="0 0 24 24" fill="none" stroke="currentColor" stroke-width="2" stroke-linecap="round" stroke-linejoin="round">
    <path d="M9 8L5 11.6923L9 16"/><path d="M15 8L19 11.6923L15 16"/>
  </symbol>
  <symbol id="icon-leadership" viewBox="0 0 512 512" fill="currentColor">
    <path d="M333.187,237.405c32.761-23.893,54.095-62.561,54.095-106.123C387.282,58.893,328.389,0,256,0S124.718,58.893,124.718,131.282c0,43.562,21.333,82.23,54.095,106.123C97.373,268.57,39.385,347.531,39.385,439.795c0,39.814,32.391,72.205,72.205,72.205H400.41c39.814,0,72.205-32.391,72.205-72.205C472.615,347.531,414.627,268.57,333.187,237.405z M164.103,131.282c0-50.672,41.225-91.897,91.897-91.897s91.897,41.225,91.897,91.897S306.672,223.18,256,223.18S164.103,181.954,164.103,131.282z M198.279,472.615h-86.69c-18.097,0-32.82-14.723-32.82-32.821c0-77.342,49.803-143.262,119.02-167.399c-2.67,15.897,1.164,32.672,11.504,46.012L198.279,472.615z M237.765,472.615l9.426-131.971c5.838,0.873,11.78,0.873,17.618,0l9.426,131.971H237.765z M269.925,296.18c-7.679,7.679-20.172,7.679-27.849,0c-7.679-7.677-7.679-20.17,0-27.849c7.677-7.679,20.17-7.679,27.849,0C277.604,276.01,277.604,288.503,269.925,296.18z M400.41,472.615h-86.689l-11.015-154.208c10.34-13.341,14.174-30.115,11.504-46.012c69.216,24.138,119.02,90.057,119.02,167.399C433.231,457.892,418.508,472.615,400.41,472.615z"/>
  </symbol>
  <symbol id="icon-management" viewBox="0 0 600 600" fill="currentColor">
    <g transform="matrix(0.95173205,0,0,0.95115787,13.901174,12.168794)">
      <g transform="matrix(1.3807551,0,0,1.2700888,273.60014,263.99768)"/>
      <g transform="matrix(1.5092301,0,0,1.3955555,36.774048,-9.4503933)"/>
      <path d="m 248.07279,-12.793664 c -72.13241,0 -131.33949,59.250935 -131.33949,131.392074 0,38.92115 17.25502,74.07152 44.45432,98.20884 C 58.500207,254.84854 -14.606185,358.21398 -14.606185,477.846 a 35.037921,35.037921 0 0 0 35.034809,35.03543 H 188.95771 c 6.88866,-25.46243 17.91968,-49.15043 32.45932,-70.0688 H 58.235927 C 73.730605,344.39181 153.38526,271.2598 248.07279,271.2598 c 13.12286,0 25.94065,1.45153 38.35524,4.13353 4.26325,-42.80875 34.59589,-78.30933 74.73011,-90.32371 11.57931,-19.5408 18.25414,-42.27592 18.25414,-66.47121 0,-72.141139 -59.20709,-131.392074 -131.33949,-131.392074 z m 0,70.068794 c 34.24293,0 61.26987,27.028459 61.26987,61.32328 0,34.29482 -27.02694,61.3274 -61.26987,61.3274 -34.24293,0 -61.27192,-27.03258 -61.27192,-61.3274 0,-34.294821 27.02899,-61.32328 61.27192,-61.32328 z"/>
      <path d="m 405.68024,197.47637 c -57.70598,0 -105.07159,47.40151 -105.07159,105.11449 0,31.13694 13.80343,59.25664 35.56289,78.56652 -82.15001,30.43306 -140.63449,113.12556 -140.63449,208.83127 a 28.030337,28.030337 0 0 0 28.0273,28.0278 h 182.11589 182.11452 a 28.030337,28.030337 0 0 0 28.0286,-28.0278 c 0,-95.70539 -58.4835,-178.39795 -140.63307,-208.83127 21.75947,-19.30988 35.56153,-47.42958 35.56153,-78.56652 0,-57.71298 -47.3656,-105.11449 -105.07158,-105.11449 z m 0,56.05559 c 27.39437,0 49.01562,21.62301 49.01562,49.0589 0,27.43588 -21.62125,49.06164 -49.01562,49.06164 -27.39437,0 -49.017,-21.62576 -49.017,-49.06164 0,-27.43589 21.62263,-49.0589 49.017,-49.0589 z m 0,171.18664 c 75.7501,0 139.47372,58.50552 151.86952,137.24226 H 405.68024 253.81075 C 266.2065,483.22412 329.93014,424.7186 405.68024,424.7186 Z"/>
    </g>
  </symbol>
  <symbol id="icon-finance" viewBox="0 0 24 24" fill="none" stroke="currentColor" stroke-width="1.5" stroke-linecap="round" stroke-linejoin="round">
    <path fill="currentColor" d="M11.7255 17.1019C11.6265 16.8844 11.4215 16.7257 11.1734 16.6975C10.9633 16.6735 10.7576 16.6285 10.562 16.5636C10.4743 16.5341 10.392 16.5019 10.3158 16.4674L10.4424 16.1223C10.5318 16.1622 10.6239 16.1987 10.7182 16.2317L10.7221 16.2331L10.7261 16.2344C11.0287 16.3344 11.3265 16.3851 11.611 16.3851C11.8967 16.3851 12.1038 16.3468 12.2629 16.2647L12.2724 16.2598L12.2817 16.2544C12.5227 16.1161 12.661 15.8784 12.661 15.6021C12.661 15.2955 12.4956 15.041 12.2071 14.9035C12.062 14.8329 11.8559 14.7655 11.559 14.6917C11.2545 14.6147 10.9987 14.533 10.8003 14.4493C10.6553 14.3837 10.5295 14.279 10.4161 14.1293C10.3185 13.9957 10.2691 13.7948 10.2691 13.5319C10.2691 13.2147 10.3584 12.9529 10.5422 12.7315C10.7058 12.5375 10.9381 12.4057 11.2499 12.3318C11.4812 12.277 11.6616 12.1119 11.7427 11.8987C11.8344 12.1148 12.0295 12.2755 12.2723 12.3142C12.4751 12.3465 12.6613 12.398 12.8287 12.4677L12.7122 12.8059C12.3961 12.679 12.085 12.6149 11.7841 12.6149C10.7848 12.6149 10.7342 13.3043 10.7342 13.4425C10.7342 13.7421 10.896 13.9933 11.1781 14.1318L11.186 14.1357L11.194 14.1393C11.3365 14.2029 11.5387 14.2642 11.8305 14.3322C12.1322 14.4004 12.3838 14.4785 12.5815 14.5651L12.5856 14.5669L12.5897 14.5686C12.7365 14.6297 12.8624 14.7317 12.9746 14.8805L12.9764 14.8828L12.9782 14.8852C13.0763 15.012 13.1261 15.2081 13.1261 15.4681C13.1261 15.7682 13.0392 16.0222 12.8604 16.2447C12.7053 16.4377 12.4888 16.5713 12.1983 16.6531C11.974 16.7163 11.8 16.8878 11.7255 17.1019Z"/>
    <path fill="currentColor" d="M11.9785 18H11.497C11.3893 18 11.302 17.9105 11.302 17.8V17.3985C11.302 17.2929 11.2219 17.2061 11.1195 17.1944C10.8757 17.1667 10.6399 17.115 10.412 17.0394C10.1906 16.9648 9.99879 16.8764 9.83657 16.7739C9.76202 16.7268 9.7349 16.6312 9.76572 16.5472L10.096 15.6466C10.1405 15.5254 10.284 15.479 10.3945 15.5417C10.5437 15.6262 10.7041 15.6985 10.8755 15.7585C11.131 15.8429 11.3762 15.8851 11.611 15.8851C11.8129 15.8851 11.9572 15.8628 12.0437 15.8181C12.1302 15.7684 12.1735 15.6964 12.1735 15.6021C12.1735 15.4929 12.1158 15.411 12.0004 15.3564C11.8892 15.3018 11.7037 15.2422 11.4442 15.1777C11.1104 15.0933 10.8323 15.0039 10.6098 14.9096C10.3873 14.8103 10.1936 14.6514 10.0288 14.433C9.86396 14.2096 9.78156 13.9092 9.78156 13.5319C9.78156 13.095 9.91136 12.7202 10.1709 12.4074C10.4049 12.13 10.7279 11.9424 11.1401 11.8447C11.2329 11.8227 11.302 11.7401 11.302 11.6425V11.2C11.302 11.0895 11.3893 11 11.497 11H11.9785C12.0862 11 12.1735 11.0895 12.1735 11.2V11.6172C12.1735 11.7194 12.2487 11.8045 12.3471 11.8202C12.7082 11.8777 13.0255 11.9866 13.2989 12.1469C13.3765 12.1924 13.4073 12.2892 13.3775 12.3756L13.0684 13.2725C13.0275 13.3914 12.891 13.4417 12.7812 13.3849C12.433 13.2049 12.1007 13.1149 11.7841 13.1149C11.4091 13.1149 11.2216 13.2241 11.2216 13.4425C11.2216 13.5468 11.2773 13.6262 11.3885 13.6809C11.4998 13.7305 11.6831 13.7851 11.9386 13.8447C12.2682 13.9192 12.5464 14.006 12.773 14.1053C12.9996 14.1996 13.1953 14.356 13.3602 14.5745C13.5291 14.7929 13.6136 15.0908 13.6136 15.4681C13.6136 15.8851 13.4879 16.25 13.2365 16.5628C13.0176 16.8354 12.7145 17.0262 12.3274 17.1353C12.2384 17.1604 12.1735 17.2412 12.1735 17.3358V17.8C12.1735 17.9105 12.0862 18 11.9785 18Z"/>
    <path fill="none" d="M9.59235 5H13.8141C14.8954 5 14.3016 6.664 13.8638 7.679L13.3656 8.843L13.2983 9C13.7702 8.97651 14.2369 9.11054 14.6282 9.382C16.0921 10.7558 17.2802 12.4098 18.1256 14.251C18.455 14.9318 18.5857 15.6958 18.5019 16.451C18.4013 18.3759 16.8956 19.9098 15.0182 20H8.38823C6.51033 19.9125 5.0024 18.3802 4.89968 16.455C4.81587 15.6998 4.94656 14.9358 5.27603 14.255C6.12242 12.412 7.31216 10.7565 8.77823 9.382C9.1696 9.11054 9.63622 8.97651 10.1081 9L10.0301 8.819L9.54263 7.679C9.1068 6.664 8.5101 5 9.59235 5Z"/>
  </symbol>
  <symbol id="icon-philosophy" viewBox="0 0 512 512" fill="currentColor">
    <path transform="translate(405,93)" d="M0 0 C0.72896484 0.52158691 1.45792969 1.04317383 2.20898438 1.58056641 C4.37860946 3.14459225 6.53616778 4.72342211 8.6875 6.3125 C9.64064087 7.01342773 9.64064087 7.01342773 10.61303711 7.72851562 C14.46462787 10.63321218 17.85510896 13.77252321 21.21826172 17.22705078 C22.95548645 18.95570603 24.75383973 20.54259687 26.62109375 22.12890625 C32.12025446 26.87824162 37.20176804 32.05252338 42.32739258 37.19702148 C44.058947 38.933936 45.79578359 40.66543889 47.53320312 42.39648438 C55.65902001 50.51618769 63.19283613 58.90664408 70.375 67.875 C74.09251308 72.49385782 77.84905519 77.01815561 81.875 81.375 C101.24535651 102.65063748 107.98501549 126.65437092 107.17041016 154.88867188 C106.33766498 170.09283314 98.66999566 185.26994086 89.0546875 196.88671875 C87.72192029 198.98008632 87.72192029 198.98008632 88.6015625 201.34765625 C89.29378906 202.66056641 89.29378906 202.66056641 90 204 C90.81984375 205.60101563 90.81984375 205.60101563 91.65625 207.234375 C92.2646875 208.39453125 92.873125 209.5546875 93.5 210.75 C100.94348009 225.49971803 100.83936355 241.39733361 95.73193359 256.98242188 C87.33033445 280.14146636 69.63595422 299.0198615 49 312 C48.39639648 312.38349609 47.79279297 312.76699219 47.17089844 313.16210938 C32.82785138 322.12369922 16.6083949 328.69895257 0 332 C0.46253728 336.23992503 1.0347505 340.297346 2.0625 344.4375 C3.39096477 350.27469367 3.85398702 355.53292638 1.875 361.25 C-0.9747947 365.4296989 -4.10592971 368.36864324 -9 370 C-10.38953457 370.10508124 -11.7833802 370.15836805 -13.17675781 370.17700195 C-14.01482971 370.18983719 -14.85290161 370.20267242 -15.71636963 370.21589661 C-17.07106354 370.22697701 -17.07106354 370.22697701 -18.453125 370.23828125 C-19.38670837 370.246353 -20.32029175 370.25442474 -21.28216553 370.26274109 C-23.25921782 370.27657233 -25.23629389 370.28729878 -27.21337891 370.29516602 C-30.22474927 370.31235586 -33.23501501 370.35624787 -36.24609375 370.40039062 C-38.16926278 370.41052006 -40.09244112 370.41903538 -42.015625 370.42578125 C-42.91065735 370.44328934 -43.8056897 370.46079742 -44.72784424 370.47883606 C-51.64284657 370.45505474 -55.66429299 368.88730592 -60.96875 364.29589844 C-61.4740625 363.7393457 -61.979375 363.18279297 -62.5 362.609375 C-63.35984497 361.67508667 -63.35984497 361.67508667 -64.23706055 360.72192383 C-65.10971558 359.74582153 -65.10971558 359.74582153 -66 358.75 C-66.61593018 358.07541748 -67.23186035 357.40083496 -67.86645508 356.70581055 C-71.37147863 352.85488733 -74.83384149 348.96649811 -78.23046875 345.01953125 C-80.60884497 342.3051372 -83.05512354 339.65430875 -85.5 337 C-88.57822523 333.65631219 -91.64083581 330.30331886 -94.625 326.875 C-95.15867187 326.26269531 -95.69234375 325.65039062 -96.2421875 325.01953125 C-97.603214 323.45586303 -98.96218697 321.89040728 -100.3203125 320.32421875 C-101.12210937 319.41285156 -101.92390625 318.50148438 -102.75 317.5625 C-103.85601562 316.29599609 -103.85601562 316.29599609 -104.984375 315.00390625 C-108.32129854 311.68638343 -111.7786957 311.79112363 -116.30883789 311.4050293 C-128.9536094 310.30639532 -142.28754692 308.35346355 -153 301 C-153.65742188 300.19949219 -154.31484375 299.39898437 -154.9921875 298.57421875 C-157.56469875 295.46930132 -159.33320756 293.75551372 -163 292 C-170.06724259 291.69081673 -177.12960132 293.34640348 -184.06201172 294.55175781 C-206.72280493 298.00906347 -229.83046313 292.17674884 -248.4921875 279.27734375 C-258.10721499 272.17128808 -264.41434446 262.79634928 -271 253 C-271.74121094 253.31453125 -272.48242188 253.6290625 -273.24609375 253.953125 C-295.73100038 263.09019844 -319.96866801 266.30632566 -342.9296875 256.78515625 C-356.65853096 250.07630215 -367.32444112 237.55872068 -375.1875 224.78125 C-376.95798731 222.06446775 -378.86602248 219.61724639 -380.9375 217.125 C-400.3290135 193.35355005 -406.5881519 167.19219567 -405 137 C-402.33249849 112.74091718 -388.48738565 89.51637219 -373 71.25 C-369.41789437 66.87666621 -366.79539212 62.20554734 -364.125 57.25 C-346.71045021 25.02058442 -318.8436408 2.2884031 -283.82421875 -8.6484375 C-278.67153301 -10.16074279 -273.44195454 -11.22089907 -268.1875 -12.3125 C-258.56753063 -14.33064605 -250.08235274 -17.70162866 -241.1484375 -21.73046875 C-162.09702814 -57.22750591 -70.754021 -50.72223631 0 0 Z"/>
  </symbol>
  <symbol id="icon-psychology" viewBox="0 0 24 24" fill="none" stroke="currentColor" stroke-width="2" stroke-linecap="round" stroke-linejoin="round">
    <path fill-rule="evenodd" clip-rule="evenodd" d="M12 1C8.20602 1 6.15147 3.02886 5.1033 5.03734C4.591 6.01899 4.31823 6.98949 4.17245 7.70719C4.09911 8.06826 4.05672 8.3713 4.03245 8.58786C4.01718 8.72417 4 8.86266 4 9C4 11.7224 5.23215 13.3137 6.29447 14.1534C6.82295 14.5712 7.11709 14.999 7.16406 15.3747L7.78873 20.3721C7.97639 21.8734 9.25259 23 10.7656 23H13.2344C14.7474 23 16.0236 21.8734 16.2113 20.3721L16.8359 15.3747C16.8829 14.999 17.177 14.5712 17.7055 14.1534C18.7678 13.3137 20 11.7224 20 9C20 8.86266 19.9828 8.72417 19.9675 8.58786C19.9433 8.3713 19.9009 8.06826 19.8275 7.70719C19.6818 6.98949 19.409 6.01899 18.8967 5.03734C17.8485 3.02886 15.794 1 12 1ZM7.53474 12.5845C6.43811 11.7176 5.86517 10.1925 6.02001 8.81057C6.03864 8.64432 6.07247 8.40049 6.13243 8.10531C6.25324 7.51051 6.47539 6.73101 6.87637 5.96266C7.65476 4.47114 9.10021 3 12 3C14.8998 3 16.3452 4.47114 17.1236 5.96266C17.5246 6.73101 17.7468 7.51051 17.8676 8.10531C17.9275 8.40049 17.9614 8.64432 17.98 8.81057C18.1348 10.1925 17.5619 11.7176 16.4653 12.5845C15.7853 13.1219 14.9955 13.974 14.8514 15.1267L14.6172 17H9.38278L9.14862 15.1267C9.00453 13.974 8.21469 13.1219 7.53474 12.5845ZM9.63278 19L9.77329 20.124C9.83584 20.6245 10.2612 21 10.7656 21H13.2344C13.7388 21 14.1642 20.6245 14.2267 20.124L14.3672 19H9.63278Z"/>
  </symbol>
  <symbol id="icon-fiction" viewBox="0 0 16 16" fill="currentColor">
    <path d="M4.083.183a.5.5 0 00-.65.65l.393.981a.5.5 0 010 .371l-.393.982a.5.5 0 00.65.65l.981-.393a.5.5 0 01.372 0l.98.392a.5.5 0 00.65-.65l-.392-.98a.5.5 0 010-.372l.393-.981a.5.5 0 00-.65-.65l-.981.392a.5.5 0 01-.372 0l-.98-.392z"/>
    <path fill-rule="evenodd" d="M11.414 4.104a2 2 0 00-2.828 0L.808 11.882a2 2 0 002.828 2.828l7.778-7.778a2 2 0 000-2.828zm-1.768 1.06a.5.5 0 01.708.707l-.884.884-.707-.707.883-.884zM7.702 7.11l.707.707-5.834 5.834a.5.5 0 11-.707-.707l5.834-5.834z" clip-rule="evenodd"/>
    <path d="M10.572 11.21a.5.5 0 010-.92l1.22-.522a.5.5 0 00.262-.262l.522-1.22a.5.5 0 01.92 0l.521 1.22a.5.5 0 00.263.262l1.219.522a.5.5 0 010 .92l-1.219.522a.5.5 0 00-.263.263l-.522 1.218a.5.5 0 01-.919 0l-.522-1.218a.5.5 0 00-.263-.263l-1.219-.522zM12.833.183a.5.5 0 00-.65.65l.293.731a.5.5 0 010 .371l-.293.732a.5.5 0 00.65.65l.731-.293a.5.5 0 01.372 0l.73.292a.5.5 0 00.65-.65l-.292-.73a.5.5 0 010-.372l.293-.731a.5.5 0 00-.65-.65l-.731.292a.5.5 0 01-.372 0l-.73-.292z"/>
  </symbol>
  <symbol id="icon-war" viewBox="0 0 512 512" fill="currentColor">
    <path d="M448,266.667h-51.921l-3.002-5.003c-8.262-13.771-17.972-26.374-28.867-37.664h41.123 c11.782,0,21.333-9.551,21.333-21.333c0-11.782-9.551-21.333-21.333-21.333h-99.76C277.363,167.522,245.969,160,213.525,160 C166.287,160,128,198.287,128,245.525v21.141h-21.333v-192c0-11.782-9.551-21.333-21.333-21.333 C73.551,53.333,64,62.885,64,74.667v192c-35.355,0-64,28.645-64,64c0,70.683,57.317,128,128,128h256c70.683,0,128-57.317,128-128 C512,295.311,483.355,266.667,448,266.667z M170.667,245.525c0-23.674,19.185-42.859,42.859-42.859 c51.643,0,99.962,23.907,131.319,64H170.667V245.525z M64,309.333h85.333H384h64c11.791,0,21.333,9.542,21.333,21.333 c0,11.782-9.554,21.333-21.333,21.333H64c-11.791,0-21.333-9.542-21.333-21.333S52.209,309.333,64,309.333z M384,416H128 c-21.636,0-41.394-8.057-56.437-21.333h368.874C425.394,407.943,405.636,416,384,416z"/>
  </symbol>
</svg>


